# xmcd
#
# Track frame offsets:
# 150
# 23737
# 41387
# 68922
# 88452
# 122022
# 138362
# 161942
# 180352
# 199182
# 219115
# 250180
#
# Disc length: 3528 seconds
#
#
# Revision: 1
# Processed by: cddbd v1.5.1PL2 Copyright (c) Steve Scherf et al.
# Submitted via: FreeRIP 2.942 
#
DISCID=a40dc60c
DTITLE=Various Artist - Live in Paradiso - Disc 2
DYEAR=1992
DGENRE=Blues
TTITLE0=Big Joe Louis and his blues kings - Trouble at your door
TTITLE1=Big Joe Louis and his blues kings - I'm so glad
TTITLE2=Big Joe Louis and his blues kings - Married woman blues
TTITLE3=Big Joe Louis and his blues kings - Trat your daddy right
TTITLE4=Big Joe Louis and his blues kings - The woman I love
TTITLE5=Big Joe Louis and his blues kings - You lied to me baby
TTITLE6=Blues 'n' trouble - Sleeping in the ground
TTITLE7=Blues 'n' trouble - Born in Chicago
TTITLE8=Blues 'n' trouble - Emilia Jane
TTITLE9=Blues 'n' trouble - Why why why
TTITLE10=Blues 'n' trouble - Long gone man
TTITLE11=Blues 'n' trouble - Goin' up the country
EXTD=
EXTT0=
EXTT1=
EXTT2=
EXTT3=
EXTT4=
EXTT5=
EXTT6=
EXTT7=
EXTT8=
EXTT9=
EXTT10=
EXTT11=
PLAYORDER=
